<svg width="14" height="12" viewBox="0 0 14 12" fill="none" xmlns="http://www.w3.org/2000/svg">
<path d="M10.4915 3.77705C10.2385 3.63208 9.90955 3.63208 9.63123 3.77705L7.65758 4.8885L6.31652 5.61338L4.3429 6.7248C4.08986 6.86978 3.76092 6.86978 3.48259 6.7248L1.9138 5.85496C1.66077 5.70999 1.48365 5.44424 1.48365 5.15428V3.43878C1.48365 3.14884 1.63546 2.88306 1.9138 2.73808L3.45728 1.89242C3.71032 1.74744 4.03925 1.74744 4.31758 1.89242L5.86108 2.73808C6.11409 2.88306 6.29123 3.14884 6.29123 3.43878V4.55024L7.63229 3.80121V2.68976C7.63229 2.39982 7.48049 2.13404 7.20214 1.98906L4.3429 0.394372C4.08986 0.249402 3.76092 0.249402 3.48259 0.394372L0.572731 1.98906C0.294397 2.13404 0.142578 2.39982 0.142578 2.68976V5.90331C0.142578 6.19325 0.294397 6.45905 0.572731 6.60402L3.48259 8.19866C3.73561 8.34371 4.06456 8.34371 4.3429 8.19866L6.31652 7.1114L7.65758 6.36239L9.63123 5.27509C9.88426 5.13012 10.2132 5.13012 10.4915 5.27509L12.035 6.12077C12.288 6.26573 12.4652 6.53154 12.4652 6.82147V8.53697C12.4652 8.8269 12.3134 9.09272 12.035 9.23768L10.4915 10.1075C10.2385 10.2524 9.90955 10.2524 9.63123 10.1075L8.08777 9.26179C7.83471 9.11683 7.65758 8.85108 7.65758 8.56115V7.44969L6.31652 8.19866V9.31017C6.31652 9.60009 6.46836 9.86584 6.74666 10.0108L9.65652 11.6055C9.90955 11.7505 10.2385 11.7505 10.5168 11.6055L13.4267 10.0108C13.6797 9.86584 13.8569 9.60009 13.8569 9.31017V6.09659C13.8569 5.80665 13.705 5.5409 13.4267 5.39593L10.4915 3.77705Z" fill="#9351FF"/>
</svg>
